# xmcd
#
# Track frame offsets:
#	150
#	30810
#	53700
#	81902
#	106385
#	126300
#	155387
#
# Disc length: 2250 seconds
#
# Revision: 0
# Processed by: cddbd v1.5.1PL2 Copyright (c) Steve Scherf et al.
# Submitted via: audiograbber 1.83.01
#
DISCID=4c08c807
DTITLE=Crusaders - Standing Tall
DYEAR=1900
DGENRE=
TTITLE0=Standing Tall
TTITLE1=I'm So Glad I'm Standing Here Today
TTITLE2=Sunshine In Your Eyes
TTITLE3=This Old World's Too Funky For Me
TTITLE4=Luckenback, Texas (Back To The Basics Of Love)
TTITLE5=Longest Night
TTITLE6=Reprise: I'm So Glad I'm Standing Here Today
EXTD=
EXTT0=
EXTT1=
EXTT2=
EXTT3=
EXTT4=
EXTT5=
EXTT6=
PLAYORDER=
